<svg width="100" height="102" viewBox="0 0 100 102" fill="none" xmlns="http://www.w3.org/2000/svg">
<path d="M37.5438 2.08668L0 27.085V74.9198L42.9462 46.3176C45.9362 44.3333 48.3554 39.8094 48.3554 36.2267V7.87353C48.3554 0.701887 43.5171 -1.89553 37.5438 2.08668Z" fill="#BCA1CC"/>
<path d="M35.9168 50.9985L0 74.9197L37.5438 99.918C39.4424 101.181 41.2266 101.781 42.7781 101.781C46.1036 101.781 48.3554 99.0184 48.3554 94.1305V65.778C48.3554 62.1884 45.9362 57.6714 42.9462 55.6803L35.9168 50.9985Z" fill="white"/>
<path d="M0 27.085V74.9197L38.4645 52.6937L0 27.085Z" fill="white"/>
<path d="M62.4535 2.08668L99.9979 27.085V74.9198L57.0518 46.3176C54.0651 44.3333 51.6426 39.8094 51.6426 36.2267V7.87353C51.6426 0.701887 56.4842 -1.89553 62.4535 2.08668Z" fill="#BCA1CC"/>
<path d="M64.0812 50.9985L57.0518 55.6796C54.0651 57.6707 51.6426 62.1878 51.6426 65.7773V94.1298C51.6426 99.0184 53.8943 101.78 57.2198 101.78C58.772 101.78 60.5556 101.18 62.4541 99.9173L99.9986 74.919L64.0812 50.9985Z" fill="white"/>
<path d="M99.9963 27.085L61.4297 52.7611L99.9963 74.9197V27.085Z" fill="white"/>
</svg>
