<svg width="264" height="56" viewBox="0 0 264 56" fill="none" xmlns="http://www.w3.org/2000/svg">
<path d="M19.9747 1.97622L0 15.2763V40.7262L22.849 25.5088C24.4398 24.4531 25.7269 22.0462 25.7269 20.14V5.05505C25.7269 1.23945 23.1528 -0.142471 19.9747 1.97622Z" fill="#BCA1CC"/>
<path d="M19.1091 27.9995L0 40.7265L19.9747 54.0266C20.9848 54.6985 21.9341 55.0175 22.7596 55.0175C24.5289 55.0175 25.7269 53.5479 25.7269 50.9474V35.8628C25.7269 33.953 24.4398 31.5497 22.849 30.4904L19.1091 27.9995Z" fill="#7F3F98"/>
<path d="M0 15.2764V40.7263L20.4646 28.9012L0 15.2764Z" fill="#7F3F98"/>
<path d="M33.2264 1.97622L53.2015 15.2763V40.7262L30.3525 25.5088C28.7635 24.4531 27.4746 22.0462 27.4746 20.14V5.05505C27.4746 1.23945 30.0506 -0.142471 33.2264 1.97622Z" fill="#BCA1CC"/>
<path d="M34.0924 27.9995L30.3525 30.49C28.7635 31.5494 27.4746 33.9526 27.4746 35.8624V50.947C27.4746 53.5479 28.6726 55.0171 30.4419 55.0171C31.2678 55.0171 32.2167 54.6981 33.2268 54.0262L53.2019 40.7261L34.0924 27.9995Z" fill="#7F3F98"/>
<path d="M53.2005 15.2764L32.6816 28.937L53.2005 40.7263V15.2764Z" fill="#7F3F98"/>
<path d="M74.9 22.8085C73.9747 22.6416 72.9942 22.4631 72.0127 22.4631C67.6302 22.4631 67.2098 23.6687 67.2098 27.9853C67.2098 32.0689 67.3872 33.7773 72.0316 33.7773C72.9942 33.7773 73.9377 33.6007 74.8906 33.4149L75.2085 36.1143C73.7972 36.4409 72.1246 36.6932 70.041 36.6932C64.4913 36.6932 63.6035 32.4979 63.6035 27.9853C63.6035 22.5369 64.8649 19.604 70.957 19.604C72.7129 19.604 74.059 19.8563 75.1799 20.1829L74.9 22.8085Z" fill="#461F59"/>
<path d="M84.5421 36.6932C79.0947 36.6932 77.1328 34.3772 77.1328 28.145C77.1328 21.9222 79.0947 19.604 84.5421 19.604C89.9894 19.604 91.9513 22.0246 91.9513 28.145C91.9513 34.273 89.9898 36.6932 84.5421 36.6932ZM84.5421 33.8726C87.551 33.8726 88.392 32.5551 88.392 28.145C88.392 23.7425 87.551 22.4251 84.5421 22.4251C81.5331 22.4251 80.7109 23.5564 80.7109 28.145C80.7113 32.7408 81.5331 33.8726 84.5421 33.8726Z" fill="#461F59"/>
<path d="M105.101 13.3999H108.643V32.1806C108.643 33.2744 108.595 34.2273 108.502 35.2352C106.643 36.2833 104.139 36.6931 101.962 36.6931C96.4962 36.6931 94.1973 34.6657 94.1973 28.1449C94.1973 21.7244 96.3927 19.6039 101.467 19.6039C102.625 19.6039 103.971 19.7824 105.102 20.0615V13.3999H105.101ZM102.298 22.3507C97.8601 22.3507 97.7754 24.7902 97.7754 28.1445C97.7754 31.2085 97.9908 33.9651 101.961 33.9651C103.027 33.9651 104.279 33.7772 104.999 33.4051C105.073 32.7313 105.101 31.9185 105.101 31.1705V22.8178C104.279 22.5368 103.157 22.3507 102.298 22.3507Z" fill="#461F59"/>
<path d="M115.186 29.92C115.372 33.1245 117.044 33.8724 119.623 33.8724C121.847 33.8724 123.884 33.6577 125.594 33.4416L125.893 36.086C124.09 36.3763 121.912 36.6935 118.708 36.6935C113.129 36.6935 111.662 33.077 111.662 28.1452C111.662 22.1085 113.531 19.6042 119.072 19.6042C125.061 19.6042 126.342 22.7631 126.342 27.7238C126.342 28.1261 126.332 28.5363 126.295 28.9577C124.389 29.2937 120.418 29.6868 118.12 29.7893L115.186 29.92ZM118.437 27.3401C119.661 27.285 121.586 27.1254 122.735 26.9661C122.763 26.7517 122.773 26.406 122.773 26.1917C122.773 23.6591 121.837 22.2772 119.072 22.2772C115.568 22.2772 115.091 24.4908 115.091 27.4997L118.437 27.3401Z" fill="#461F59"/>
<path d="M128.568 31.507C128.568 28.6026 129.83 26.7801 133.044 26.2939C134.876 26.0129 136.885 25.9391 138.941 25.8554C138.941 23.547 137.932 22.3889 135.399 22.3889C133.409 22.3889 131.316 22.5938 129.616 22.8085L129.325 20.2115C131.119 19.9114 133.297 19.604 135.735 19.604C139.399 19.604 142.417 20.6043 142.417 24.8457V32.1811C142.417 33.2748 142.37 34.2277 142.276 35.2357C140.417 36.2838 137.94 36.6936 134.839 36.6936C130.335 36.6933 128.568 34.9279 128.568 31.507ZM138.94 28.1714C137.472 28.2283 135.773 28.2569 134.417 28.574C132.689 28.9763 132.072 29.5081 132.072 31.4519C132.072 33.5362 133.231 34.0395 135.362 34.0395C136.445 34.0395 137.791 33.9558 138.837 33.47C138.912 32.798 138.94 31.9852 138.94 31.2372V28.1714Z" fill="#461F59"/>
<path d="M160.107 36.4695H156.557V26.182C156.557 23.5278 156.09 22.408 152.68 22.408C151.614 22.408 150.362 22.5941 149.642 22.9681C149.568 23.6401 149.54 24.4529 149.54 25.2009V36.4695H145.998V24.1165C145.998 23.0232 146.045 22.0703 146.139 21.062C148.025 20.1377 150.502 19.604 153.651 19.604C159.509 19.604 160.107 22.3414 160.107 25.7986L160.107 36.4695Z" fill="#461F59"/>
<path d="M170.043 30.9466L173.604 19.8279H177.201L169.455 42.5991H165.857L168.436 35.3473L161.719 19.8279H165.475L170.043 30.9466Z" fill="#461F59"/>
<path d="M199.069 19.8278H202.563L198.826 34.3675C198.415 35.9547 197.528 36.6929 196.21 36.6929C194.883 36.6929 194.023 35.9449 193.537 34.3675L190.743 25.2856L187.959 34.3581C187.474 35.9355 186.614 36.6929 185.277 36.6929C183.941 36.6929 183.044 35.9449 182.633 34.3483L178.924 19.8274H182.549L185.492 33.0667L188.38 23.3222C188.819 21.8454 189.594 21.1449 190.818 21.1449C192.042 21.1449 192.817 21.836 193.257 23.3222L196.097 33.0304L199.069 19.8278Z" fill="#461F59"/>
<path d="M219.302 36.4694H215.751V26.2199C215.751 23.5658 215.265 22.4438 211.836 22.4438C210.772 22.4438 209.612 22.6867 208.696 23.0987V36.469H205.146V13.3999H208.696V20.2302C209.911 19.8468 211.285 19.6039 212.808 19.6039C218.685 19.6039 219.302 22.3413 219.302 25.7985L219.302 36.4694Z" fill="#461F59"/>
<path d="M225.47 29.92C225.656 33.1245 227.329 33.8724 229.907 33.8724C232.131 33.8724 234.168 33.6577 235.878 33.4416L236.177 36.086C234.374 36.3763 232.196 36.6935 228.992 36.6935C223.414 36.6935 221.947 33.077 221.947 28.1452C221.947 22.1085 223.815 19.6042 229.357 19.6042C235.345 19.6042 236.626 22.7631 236.626 27.7238C236.626 28.1261 236.616 28.5363 236.579 28.9577C234.673 29.2937 230.702 29.6868 228.404 29.7893L225.47 29.92ZM228.721 27.3401C229.945 27.285 231.87 27.1254 233.019 26.9661C233.047 26.7517 233.057 26.406 233.057 26.1917C233.057 23.6591 232.121 22.2772 229.357 22.2772C225.852 22.2772 225.375 24.4908 225.375 27.4997L228.721 27.3401Z" fill="#461F59"/>
<path d="M243.197 36.4695H239.656V24.1165C239.656 23.0232 239.703 22.0703 239.796 21.062C241.655 20.016 244.159 19.604 246.337 19.604C246.888 19.604 247.401 19.6228 247.888 19.6685L247.608 22.4913C247.234 22.4439 246.813 22.4247 246.337 22.4247C245.272 22.4247 244.02 22.6126 243.3 22.9866C243.225 23.6585 243.197 24.471 243.197 25.219V36.4695Z" fill="#461F59"/>
<path d="M252.843 29.92C253.029 33.1245 254.702 33.8724 257.281 33.8724C259.505 33.8724 261.542 33.6577 263.252 33.4416L263.551 36.086C261.748 36.3763 259.57 36.6935 256.365 36.6935C250.787 36.6935 249.32 33.077 249.32 28.1452C249.32 22.1085 251.188 19.6042 256.73 19.6042C262.718 19.6042 263.999 22.7631 263.999 27.7238C263.999 28.1261 263.989 28.5363 263.952 28.9577C262.046 29.2937 258.075 29.6868 255.777 29.7893L252.843 29.92ZM256.094 27.3401C257.318 27.285 259.243 27.1254 260.392 26.9661C260.42 26.7517 260.43 26.406 260.43 26.1917C260.43 23.6591 259.495 22.2772 256.73 22.2772C253.225 22.2772 252.749 24.4908 252.749 27.4997L256.094 27.3401Z" fill="#461F59"/>
</svg>
